<mxfile host="Electron" modified="2024-08-21T15:07:54.171Z" agent="Mozilla/5.0 (Windows NT 10.0; Win64; x64) AppleWebKit/537.36 (KHTML, like Gecko) draw.io/24.6.4 Chrome/124.0.6367.207 Electron/30.0.6 Safari/537.36" etag="HsiVD66pD8AsYoi73RPt" version="24.6.4" type="device">
  <diagram name="Страница — 1" id="DFbJrWMMVO3NYCHpaIkI">
    <mxGraphModel dx="2303" dy="1340" grid="1" gridSize="10" guides="1" tooltips="1" connect="1" arrows="1" fold="1" page="1" pageScale="1" pageWidth="827" pageHeight="1169" math="0" shadow="0">
      <root>
        <mxCell id="0" />
        <mxCell id="1" parent="0" />
        <mxCell id="AhgYaTgqnZ72xqWJ1Z9R-10" value="" style="rounded=0;whiteSpace=wrap;html=1;strokeWidth=2;sketch=1;curveFitting=1;jiggle=2;fontFamily=Comic Sans MS;" parent="1" vertex="1">
          <mxGeometry x="40" y="60" width="750" height="80" as="geometry" />
        </mxCell>
        <mxCell id="AhgYaTgqnZ72xqWJ1Z9R-2" value="Speed" style="rounded=0;whiteSpace=wrap;html=1;strokeWidth=2;sketch=1;curveFitting=1;jiggle=2;fontFamily=Comic Sans MS;" parent="1" vertex="1">
          <mxGeometry x="340" y="70" width="60" height="60" as="geometry" />
        </mxCell>
        <mxCell id="AhgYaTgqnZ72xqWJ1Z9R-4" value="" style="rounded=0;whiteSpace=wrap;html=1;strokeWidth=2;glass=0;shadow=0;sketch=1;curveFitting=1;jiggle=2;fontFamily=Comic Sans MS;" parent="1" vertex="1">
          <mxGeometry x="40" y="160" width="260" height="120" as="geometry" />
        </mxCell>
        <mxCell id="AhgYaTgqnZ72xqWJ1Z9R-13" value="Пилот" style="rounded=0;whiteSpace=wrap;html=1;sketch=1;curveFitting=1;jiggle=2;fontFamily=Comic Sans MS;" parent="1" vertex="1">
          <mxGeometry x="230" y="30" width="90" height="30" as="geometry" />
        </mxCell>
        <mxCell id="AhgYaTgqnZ72xqWJ1Z9R-14" value="Хакер" style="rounded=0;whiteSpace=wrap;html=1;sketch=1;curveFitting=1;jiggle=2;fontFamily=Comic Sans MS;" parent="1" vertex="1">
          <mxGeometry x="320" y="30" width="90" height="30" as="geometry" />
        </mxCell>
        <mxCell id="AhgYaTgqnZ72xqWJ1Z9R-12" value="5" style="rounded=0;whiteSpace=wrap;html=1;sketch=1;curveFitting=1;jiggle=2;fontFamily=Comic Sans MS;" parent="1" vertex="1">
          <mxGeometry x="200" y="30" width="30" height="30" as="geometry" />
        </mxCell>
        <mxCell id="AhgYaTgqnZ72xqWJ1Z9R-15" value="Особености" style="rounded=0;whiteSpace=wrap;html=1;strokeWidth=2;glass=0;shadow=0;sketch=1;curveFitting=1;jiggle=2;fontFamily=Comic Sans MS;" parent="1" vertex="1">
          <mxGeometry x="550" y="155" width="240" height="555" as="geometry" />
        </mxCell>
        <mxCell id="AhgYaTgqnZ72xqWJ1Z9R-16" value="" style="rounded=0;whiteSpace=wrap;html=1;strokeWidth=2;glass=0;shadow=0;sketch=1;curveFitting=1;jiggle=2;fontFamily=Comic Sans MS;" parent="1" vertex="1">
          <mxGeometry x="40" y="720" width="750" height="430" as="geometry" />
        </mxCell>
        <mxCell id="AhgYaTgqnZ72xqWJ1Z9R-17" value="Досье" style="rounded=0;whiteSpace=wrap;html=1;sketch=1;curveFitting=1;jiggle=2;fontFamily=Comic Sans MS;" parent="1" vertex="1">
          <mxGeometry x="610" y="30" width="90" height="30" as="geometry" />
        </mxCell>
        <mxCell id="AhgYaTgqnZ72xqWJ1Z9R-18" value="Способности" style="rounded=0;whiteSpace=wrap;html=1;sketch=1;curveFitting=1;jiggle=2;fontFamily=Comic Sans MS;" parent="1" vertex="1">
          <mxGeometry x="700" y="30" width="90" height="30" as="geometry" />
        </mxCell>
        <mxCell id="AhgYaTgqnZ72xqWJ1Z9R-19" value="Состояние" style="rounded=0;whiteSpace=wrap;html=1;sketch=1;curveFitting=1;jiggle=2;fontFamily=Comic Sans MS;" parent="1" vertex="1">
          <mxGeometry x="520" y="30" width="90" height="30" as="geometry" />
        </mxCell>
        <mxCell id="AhgYaTgqnZ72xqWJ1Z9R-22" value="Броня" style="rounded=0;whiteSpace=wrap;html=1;strokeWidth=2;sketch=1;curveFitting=1;jiggle=2;fontFamily=Comic Sans MS;" parent="1" vertex="1">
          <mxGeometry x="130" y="70" width="60" height="25" as="geometry" />
        </mxCell>
        <mxCell id="AhgYaTgqnZ72xqWJ1Z9R-23" value="Init" style="rounded=0;whiteSpace=wrap;html=1;strokeWidth=2;sketch=1;curveFitting=1;jiggle=2;fontFamily=Comic Sans MS;labelBorderColor=none;labelBackgroundColor=none;" parent="1" vertex="1">
          <mxGeometry x="270" y="70" width="60" height="60" as="geometry" />
        </mxCell>
        <mxCell id="AhgYaTgqnZ72xqWJ1Z9R-24" value="Health" style="rounded=0;whiteSpace=wrap;html=1;strokeWidth=2;sketch=1;curveFitting=1;jiggle=2;fontFamily=Comic Sans MS;labelBorderColor=none;labelBackgroundColor=none;" parent="1" vertex="1">
          <mxGeometry x="60" y="70" width="60" height="25" as="geometry" />
        </mxCell>
        <mxCell id="AhgYaTgqnZ72xqWJ1Z9R-25" value="Ближний бой" style="rounded=0;whiteSpace=wrap;html=1;strokeWidth=2;sketch=1;curveFitting=1;jiggle=2;fontFamily=Comic Sans MS;labelBorderColor=none;labelBackgroundColor=none;" parent="1" vertex="1">
          <mxGeometry x="640" y="70" width="60" height="60" as="geometry" />
        </mxCell>
        <mxCell id="AhgYaTgqnZ72xqWJ1Z9R-26" value="Точная стрельба" style="rounded=0;whiteSpace=wrap;html=1;strokeWidth=2;sketch=1;curveFitting=1;jiggle=2;fontFamily=Comic Sans MS;labelBorderColor=none;labelBackgroundColor=none;" parent="1" vertex="1">
          <mxGeometry x="570" y="70" width="60" height="60" as="geometry" />
        </mxCell>
        <mxCell id="AhgYaTgqnZ72xqWJ1Z9R-27" value="Быстрая стрельба" style="rounded=0;whiteSpace=wrap;html=1;strokeWidth=2;sketch=1;curveFitting=1;jiggle=2;fontFamily=Comic Sans MS;labelBorderColor=none;labelBackgroundColor=none;" parent="1" vertex="1">
          <mxGeometry x="500" y="70" width="60" height="60" as="geometry" />
        </mxCell>
        <mxCell id="AhgYaTgqnZ72xqWJ1Z9R-28" value="Джекослав" style="rounded=0;whiteSpace=wrap;html=1;sketch=1;curveFitting=1;jiggle=2;fontFamily=Comic Sans MS;" parent="1" vertex="1">
          <mxGeometry x="40" y="30" width="160" height="30" as="geometry" />
        </mxCell>
        <mxCell id="AhgYaTgqnZ72xqWJ1Z9R-29" value="Взлом" style="rounded=0;whiteSpace=wrap;html=1;strokeWidth=2;sketch=1;curveFitting=1;jiggle=2;fontFamily=Comic Sans MS;labelBorderColor=none;labelBackgroundColor=none;" parent="1" vertex="1">
          <mxGeometry x="715" y="70" width="60" height="60" as="geometry" />
        </mxCell>
        <mxCell id="AhgYaTgqnZ72xqWJ1Z9R-32" value="Телосложение" style="rounded=0;whiteSpace=wrap;html=1;shadow=0;glass=0;sketch=1;jiggle=2;curveFitting=1;strokeWidth=2;align=center;verticalAlign=middle;fontFamily=Comic Sans MS;fontSize=12;fillColor=#FF7D7D;fillStyle=solid;" parent="1" vertex="1">
          <mxGeometry x="40" y="160" width="260" height="20" as="geometry" />
        </mxCell>
        <mxCell id="AhgYaTgqnZ72xqWJ1Z9R-33" value="4" style="rounded=0;whiteSpace=wrap;html=1;shadow=0;glass=0;sketch=1;jiggle=2;curveFitting=1;strokeWidth=2;align=center;verticalAlign=middle;fontFamily=Comic Sans MS;fontSize=12;fillColor=#FF7D7D;fillStyle=solid;" parent="1" vertex="1">
          <mxGeometry x="40" y="160" width="20" height="20" as="geometry" />
        </mxCell>
        <mxCell id="AhgYaTgqnZ72xqWJ1Z9R-34" value="Состояния" style="rounded=0;whiteSpace=wrap;html=1;strokeWidth=2;glass=0;shadow=0;sketch=1;curveFitting=1;jiggle=2;fontFamily=Comic Sans MS;" parent="1" vertex="1">
          <mxGeometry x="310" y="155" width="230" height="555" as="geometry" />
        </mxCell>
        <mxCell id="AhgYaTgqnZ72xqWJ1Z9R-37" value="Спасбросок" style="rounded=0;whiteSpace=wrap;html=1;shadow=0;glass=0;sketch=1;jiggle=2;curveFitting=1;strokeColor=default;strokeWidth=2;align=center;verticalAlign=middle;fontFamily=Comic Sans MS;fontSize=10;fontColor=default;fillColor=default;" parent="1" vertex="1">
          <mxGeometry x="80" y="190" width="85" height="20" as="geometry" />
        </mxCell>
        <mxCell id="AhgYaTgqnZ72xqWJ1Z9R-39" value="3" style="rounded=0;whiteSpace=wrap;html=1;shadow=0;glass=0;sketch=1;jiggle=2;curveFitting=1;strokeColor=default;strokeWidth=2;align=center;verticalAlign=middle;fontFamily=Comic Sans MS;fontSize=12;fontColor=default;fillColor=default;" parent="1" vertex="1">
          <mxGeometry x="65" y="190" width="20" height="20" as="geometry" />
        </mxCell>
        <mxCell id="AhgYaTgqnZ72xqWJ1Z9R-44" value="" style="ellipse;whiteSpace=wrap;html=1;aspect=fixed;rounded=0;shadow=0;glass=0;sketch=1;jiggle=2;curveFitting=1;strokeColor=default;strokeWidth=2;align=center;verticalAlign=middle;fontFamily=Comic Sans MS;fontSize=12;fontColor=default;fillColor=default;" parent="1" vertex="1">
          <mxGeometry x="50" y="195" width="10" height="10" as="geometry" />
        </mxCell>
        <mxCell id="AhgYaTgqnZ72xqWJ1Z9R-45" value="Выносливость" style="rounded=0;whiteSpace=wrap;html=1;shadow=0;glass=0;sketch=1;jiggle=2;curveFitting=1;strokeColor=default;strokeWidth=2;align=center;verticalAlign=middle;fontFamily=Comic Sans MS;fontSize=10;fontColor=default;fillColor=default;" parent="1" vertex="1">
          <mxGeometry x="205" y="190" width="85" height="20" as="geometry" />
        </mxCell>
        <mxCell id="AhgYaTgqnZ72xqWJ1Z9R-46" value="3" style="rounded=0;whiteSpace=wrap;html=1;shadow=0;glass=0;sketch=1;jiggle=2;curveFitting=1;strokeColor=default;strokeWidth=2;align=center;verticalAlign=middle;fontFamily=Comic Sans MS;fontSize=12;fontColor=default;fillColor=default;" parent="1" vertex="1">
          <mxGeometry x="190" y="190" width="20" height="20" as="geometry" />
        </mxCell>
        <mxCell id="AhgYaTgqnZ72xqWJ1Z9R-47" value="" style="ellipse;whiteSpace=wrap;html=1;aspect=fixed;rounded=0;shadow=0;glass=0;sketch=1;jiggle=2;curveFitting=1;strokeColor=default;strokeWidth=2;align=center;verticalAlign=middle;fontFamily=Comic Sans MS;fontSize=12;fontColor=default;fillColor=default;" parent="1" vertex="1">
          <mxGeometry x="175" y="195" width="10" height="10" as="geometry" />
        </mxCell>
        <mxCell id="AhgYaTgqnZ72xqWJ1Z9R-48" value="Атлетика" style="rounded=0;whiteSpace=wrap;html=1;shadow=0;glass=0;sketch=1;jiggle=2;curveFitting=1;strokeColor=default;strokeWidth=2;align=center;verticalAlign=middle;fontFamily=Comic Sans MS;fontSize=12;fontColor=default;fillColor=default;" parent="1" vertex="1">
          <mxGeometry x="80" y="220" width="85" height="20" as="geometry" />
        </mxCell>
        <mxCell id="AhgYaTgqnZ72xqWJ1Z9R-49" value="3" style="rounded=0;whiteSpace=wrap;html=1;shadow=0;glass=0;sketch=1;jiggle=2;curveFitting=1;strokeColor=default;strokeWidth=2;align=center;verticalAlign=middle;fontFamily=Comic Sans MS;fontSize=12;fontColor=default;fillColor=default;" parent="1" vertex="1">
          <mxGeometry x="65" y="220" width="20" height="20" as="geometry" />
        </mxCell>
        <mxCell id="AhgYaTgqnZ72xqWJ1Z9R-50" value="" style="ellipse;whiteSpace=wrap;html=1;aspect=fixed;rounded=0;shadow=0;glass=0;sketch=1;jiggle=2;curveFitting=1;strokeColor=default;strokeWidth=2;align=center;verticalAlign=middle;fontFamily=Comic Sans MS;fontSize=12;fontColor=default;fillColor=default;" parent="1" vertex="1">
          <mxGeometry x="50" y="225" width="10" height="10" as="geometry" />
        </mxCell>
        <mxCell id="AhgYaTgqnZ72xqWJ1Z9R-51" value="Подвижность" style="rounded=0;whiteSpace=wrap;html=1;shadow=0;glass=0;sketch=1;jiggle=2;curveFitting=1;strokeColor=default;strokeWidth=2;align=center;verticalAlign=middle;fontFamily=Comic Sans MS;fontSize=10;fontColor=default;fillColor=default;" parent="1" vertex="1">
          <mxGeometry x="205" y="220" width="85" height="20" as="geometry" />
        </mxCell>
        <mxCell id="AhgYaTgqnZ72xqWJ1Z9R-52" value="3" style="rounded=0;whiteSpace=wrap;html=1;shadow=0;glass=0;sketch=1;jiggle=2;curveFitting=1;strokeColor=default;strokeWidth=2;align=center;verticalAlign=middle;fontFamily=Comic Sans MS;fontSize=12;fontColor=default;fillColor=default;" parent="1" vertex="1">
          <mxGeometry x="190" y="220" width="20" height="20" as="geometry" />
        </mxCell>
        <mxCell id="AhgYaTgqnZ72xqWJ1Z9R-53" value="" style="ellipse;whiteSpace=wrap;html=1;aspect=fixed;rounded=0;shadow=0;glass=0;sketch=1;jiggle=2;curveFitting=1;strokeColor=default;strokeWidth=2;align=center;verticalAlign=middle;fontFamily=Comic Sans MS;fontSize=12;fontColor=default;fillColor=default;" parent="1" vertex="1">
          <mxGeometry x="175" y="225" width="10" height="10" as="geometry" />
        </mxCell>
        <mxCell id="AhgYaTgqnZ72xqWJ1Z9R-54" value="Акробатика" style="rounded=0;whiteSpace=wrap;html=1;shadow=0;glass=0;sketch=1;jiggle=2;curveFitting=1;strokeColor=default;strokeWidth=2;align=center;verticalAlign=middle;fontFamily=Comic Sans MS;fontSize=10;fontColor=default;fillColor=default;" parent="1" vertex="1">
          <mxGeometry x="80" y="250" width="85" height="20" as="geometry" />
        </mxCell>
        <mxCell id="AhgYaTgqnZ72xqWJ1Z9R-55" value="3" style="rounded=0;whiteSpace=wrap;html=1;shadow=0;glass=0;sketch=1;jiggle=2;curveFitting=1;strokeColor=default;strokeWidth=2;align=center;verticalAlign=middle;fontFamily=Comic Sans MS;fontSize=12;fontColor=default;fillColor=default;" parent="1" vertex="1">
          <mxGeometry x="65" y="250" width="20" height="20" as="geometry" />
        </mxCell>
        <mxCell id="AhgYaTgqnZ72xqWJ1Z9R-56" value="" style="ellipse;whiteSpace=wrap;html=1;aspect=fixed;rounded=0;shadow=0;glass=0;sketch=1;jiggle=2;curveFitting=1;strokeColor=default;strokeWidth=2;align=center;verticalAlign=middle;fontFamily=Comic Sans MS;fontSize=12;fontColor=default;fillColor=default;" parent="1" vertex="1">
          <mxGeometry x="50" y="255" width="10" height="10" as="geometry" />
        </mxCell>
        <mxCell id="AhgYaTgqnZ72xqWJ1Z9R-57" value="Детоксикация" style="rounded=0;whiteSpace=wrap;html=1;shadow=0;glass=0;sketch=1;jiggle=2;curveFitting=1;strokeColor=default;strokeWidth=2;align=center;verticalAlign=middle;fontFamily=Comic Sans MS;fontSize=10;fontColor=default;fillColor=default;" parent="1" vertex="1">
          <mxGeometry x="205" y="250" width="85" height="20" as="geometry" />
        </mxCell>
        <mxCell id="AhgYaTgqnZ72xqWJ1Z9R-58" value="3" style="rounded=0;whiteSpace=wrap;html=1;shadow=0;glass=0;sketch=1;jiggle=2;curveFitting=1;strokeColor=default;strokeWidth=2;align=center;verticalAlign=middle;fontFamily=Comic Sans MS;fontSize=12;fontColor=default;fillColor=default;" parent="1" vertex="1">
          <mxGeometry x="190" y="250" width="20" height="20" as="geometry" />
        </mxCell>
        <mxCell id="AhgYaTgqnZ72xqWJ1Z9R-59" value="" style="ellipse;whiteSpace=wrap;html=1;aspect=fixed;rounded=0;shadow=0;glass=0;sketch=1;jiggle=2;curveFitting=1;strokeColor=default;strokeWidth=2;align=center;verticalAlign=middle;fontFamily=Comic Sans MS;fontSize=12;fontColor=default;fillColor=default;" parent="1" vertex="1">
          <mxGeometry x="175" y="255" width="10" height="10" as="geometry" />
        </mxCell>
        <mxCell id="AhgYaTgqnZ72xqWJ1Z9R-60" value="" style="rounded=0;whiteSpace=wrap;html=1;strokeWidth=2;glass=0;shadow=0;sketch=1;curveFitting=1;jiggle=2;fontFamily=Comic Sans MS;" parent="1" vertex="1">
          <mxGeometry x="40" y="300" width="260" height="120" as="geometry" />
        </mxCell>
        <mxCell id="AhgYaTgqnZ72xqWJ1Z9R-61" value="Нервная система" style="rounded=0;whiteSpace=wrap;html=1;shadow=0;glass=0;sketch=1;jiggle=2;curveFitting=1;strokeWidth=2;align=center;verticalAlign=middle;fontFamily=Comic Sans MS;fontSize=12;fillColor=#FFEF85;fillStyle=solid;" parent="1" vertex="1">
          <mxGeometry x="40" y="300" width="260" height="20" as="geometry" />
        </mxCell>
        <mxCell id="AhgYaTgqnZ72xqWJ1Z9R-62" value="4" style="rounded=0;whiteSpace=wrap;html=1;shadow=0;glass=0;sketch=1;jiggle=2;curveFitting=1;strokeWidth=2;align=center;verticalAlign=middle;fontFamily=Comic Sans MS;fontSize=12;fillColor=#FFEF85;fillStyle=solid;" parent="1" vertex="1">
          <mxGeometry x="40" y="300" width="20" height="20" as="geometry" />
        </mxCell>
        <mxCell id="AhgYaTgqnZ72xqWJ1Z9R-63" value="Спасбросок" style="rounded=0;whiteSpace=wrap;html=1;shadow=0;glass=0;sketch=1;jiggle=2;curveFitting=1;strokeColor=default;strokeWidth=2;align=center;verticalAlign=middle;fontFamily=Comic Sans MS;fontSize=10;fontColor=default;fillColor=default;" parent="1" vertex="1">
          <mxGeometry x="80" y="330" width="85" height="20" as="geometry" />
        </mxCell>
        <mxCell id="AhgYaTgqnZ72xqWJ1Z9R-64" value="3" style="rounded=0;whiteSpace=wrap;html=1;shadow=0;glass=0;sketch=1;jiggle=2;curveFitting=1;strokeColor=default;strokeWidth=2;align=center;verticalAlign=middle;fontFamily=Comic Sans MS;fontSize=12;fontColor=default;fillColor=default;" parent="1" vertex="1">
          <mxGeometry x="65" y="330" width="20" height="20" as="geometry" />
        </mxCell>
        <mxCell id="AhgYaTgqnZ72xqWJ1Z9R-65" value="" style="ellipse;whiteSpace=wrap;html=1;aspect=fixed;rounded=0;shadow=0;glass=0;sketch=1;jiggle=2;curveFitting=1;strokeColor=default;strokeWidth=2;align=center;verticalAlign=middle;fontFamily=Comic Sans MS;fontSize=12;fontColor=default;fillColor=default;" parent="1" vertex="1">
          <mxGeometry x="50" y="335" width="10" height="10" as="geometry" />
        </mxCell>
        <mxCell id="AhgYaTgqnZ72xqWJ1Z9R-66" value="Выносливость" style="rounded=0;whiteSpace=wrap;html=1;shadow=0;glass=0;sketch=1;jiggle=2;curveFitting=1;strokeColor=default;strokeWidth=2;align=center;verticalAlign=middle;fontFamily=Comic Sans MS;fontSize=10;fontColor=default;fillColor=default;" parent="1" vertex="1">
          <mxGeometry x="205" y="330" width="85" height="20" as="geometry" />
        </mxCell>
        <mxCell id="AhgYaTgqnZ72xqWJ1Z9R-67" value="3" style="rounded=0;whiteSpace=wrap;html=1;shadow=0;glass=0;sketch=1;jiggle=2;curveFitting=1;strokeColor=default;strokeWidth=2;align=center;verticalAlign=middle;fontFamily=Comic Sans MS;fontSize=12;fontColor=default;fillColor=default;" parent="1" vertex="1">
          <mxGeometry x="190" y="330" width="20" height="20" as="geometry" />
        </mxCell>
        <mxCell id="AhgYaTgqnZ72xqWJ1Z9R-68" value="" style="ellipse;whiteSpace=wrap;html=1;aspect=fixed;rounded=0;shadow=0;glass=0;sketch=1;jiggle=2;curveFitting=1;strokeColor=default;strokeWidth=2;align=center;verticalAlign=middle;fontFamily=Comic Sans MS;fontSize=12;fontColor=default;fillColor=default;" parent="1" vertex="1">
          <mxGeometry x="175" y="335" width="10" height="10" as="geometry" />
        </mxCell>
        <mxCell id="AhgYaTgqnZ72xqWJ1Z9R-69" value="Атлетика" style="rounded=0;whiteSpace=wrap;html=1;shadow=0;glass=0;sketch=1;jiggle=2;curveFitting=1;strokeColor=default;strokeWidth=2;align=center;verticalAlign=middle;fontFamily=Comic Sans MS;fontSize=12;fontColor=default;fillColor=default;" parent="1" vertex="1">
          <mxGeometry x="80" y="360" width="85" height="20" as="geometry" />
        </mxCell>
        <mxCell id="AhgYaTgqnZ72xqWJ1Z9R-70" value="3" style="rounded=0;whiteSpace=wrap;html=1;shadow=0;glass=0;sketch=1;jiggle=2;curveFitting=1;strokeColor=default;strokeWidth=2;align=center;verticalAlign=middle;fontFamily=Comic Sans MS;fontSize=12;fontColor=default;fillColor=default;" parent="1" vertex="1">
          <mxGeometry x="65" y="360" width="20" height="20" as="geometry" />
        </mxCell>
        <mxCell id="AhgYaTgqnZ72xqWJ1Z9R-71" value="" style="ellipse;whiteSpace=wrap;html=1;aspect=fixed;rounded=0;shadow=0;glass=0;sketch=1;jiggle=2;curveFitting=1;strokeColor=default;strokeWidth=2;align=center;verticalAlign=middle;fontFamily=Comic Sans MS;fontSize=12;fontColor=default;fillColor=default;" parent="1" vertex="1">
          <mxGeometry x="50" y="365" width="10" height="10" as="geometry" />
        </mxCell>
        <mxCell id="AhgYaTgqnZ72xqWJ1Z9R-72" value="Подвижность" style="rounded=0;whiteSpace=wrap;html=1;shadow=0;glass=0;sketch=1;jiggle=2;curveFitting=1;strokeColor=default;strokeWidth=2;align=center;verticalAlign=middle;fontFamily=Comic Sans MS;fontSize=10;fontColor=default;fillColor=default;" parent="1" vertex="1">
          <mxGeometry x="205" y="360" width="85" height="20" as="geometry" />
        </mxCell>
        <mxCell id="AhgYaTgqnZ72xqWJ1Z9R-73" value="3" style="rounded=0;whiteSpace=wrap;html=1;shadow=0;glass=0;sketch=1;jiggle=2;curveFitting=1;strokeColor=default;strokeWidth=2;align=center;verticalAlign=middle;fontFamily=Comic Sans MS;fontSize=12;fontColor=default;fillColor=default;" parent="1" vertex="1">
          <mxGeometry x="190" y="360" width="20" height="20" as="geometry" />
        </mxCell>
        <mxCell id="AhgYaTgqnZ72xqWJ1Z9R-74" value="" style="ellipse;whiteSpace=wrap;html=1;aspect=fixed;rounded=0;shadow=0;glass=0;sketch=1;jiggle=2;curveFitting=1;strokeColor=default;strokeWidth=2;align=center;verticalAlign=middle;fontFamily=Comic Sans MS;fontSize=12;fontColor=default;fillColor=default;" parent="1" vertex="1">
          <mxGeometry x="175" y="365" width="10" height="10" as="geometry" />
        </mxCell>
        <mxCell id="AhgYaTgqnZ72xqWJ1Z9R-75" value="Акробатика" style="rounded=0;whiteSpace=wrap;html=1;shadow=0;glass=0;sketch=1;jiggle=2;curveFitting=1;strokeColor=default;strokeWidth=2;align=center;verticalAlign=middle;fontFamily=Comic Sans MS;fontSize=10;fontColor=default;fillColor=default;" parent="1" vertex="1">
          <mxGeometry x="80" y="390" width="85" height="20" as="geometry" />
        </mxCell>
        <mxCell id="AhgYaTgqnZ72xqWJ1Z9R-76" value="3" style="rounded=0;whiteSpace=wrap;html=1;shadow=0;glass=0;sketch=1;jiggle=2;curveFitting=1;strokeColor=default;strokeWidth=2;align=center;verticalAlign=middle;fontFamily=Comic Sans MS;fontSize=12;fontColor=default;fillColor=default;" parent="1" vertex="1">
          <mxGeometry x="65" y="390" width="20" height="20" as="geometry" />
        </mxCell>
        <mxCell id="AhgYaTgqnZ72xqWJ1Z9R-77" value="" style="ellipse;whiteSpace=wrap;html=1;aspect=fixed;rounded=0;shadow=0;glass=0;sketch=1;jiggle=2;curveFitting=1;strokeColor=default;strokeWidth=2;align=center;verticalAlign=middle;fontFamily=Comic Sans MS;fontSize=12;fontColor=default;fillColor=default;" parent="1" vertex="1">
          <mxGeometry x="50" y="395" width="10" height="10" as="geometry" />
        </mxCell>
        <mxCell id="AhgYaTgqnZ72xqWJ1Z9R-78" value="Детоксикация" style="rounded=0;whiteSpace=wrap;html=1;shadow=0;glass=0;sketch=1;jiggle=2;curveFitting=1;strokeColor=default;strokeWidth=2;align=center;verticalAlign=middle;fontFamily=Comic Sans MS;fontSize=10;fontColor=default;fillColor=default;" parent="1" vertex="1">
          <mxGeometry x="205" y="390" width="85" height="20" as="geometry" />
        </mxCell>
        <mxCell id="AhgYaTgqnZ72xqWJ1Z9R-79" value="3" style="rounded=0;whiteSpace=wrap;html=1;shadow=0;glass=0;sketch=1;jiggle=2;curveFitting=1;strokeColor=default;strokeWidth=2;align=center;verticalAlign=middle;fontFamily=Comic Sans MS;fontSize=12;fontColor=default;fillColor=default;" parent="1" vertex="1">
          <mxGeometry x="190" y="390" width="20" height="20" as="geometry" />
        </mxCell>
        <mxCell id="AhgYaTgqnZ72xqWJ1Z9R-80" value="" style="ellipse;whiteSpace=wrap;html=1;aspect=fixed;rounded=0;shadow=0;glass=0;sketch=1;jiggle=2;curveFitting=1;strokeColor=default;strokeWidth=2;align=center;verticalAlign=middle;fontFamily=Comic Sans MS;fontSize=12;fontColor=default;fillColor=default;" parent="1" vertex="1">
          <mxGeometry x="175" y="395" width="10" height="10" as="geometry" />
        </mxCell>
        <mxCell id="AhgYaTgqnZ72xqWJ1Z9R-81" value="" style="rounded=0;whiteSpace=wrap;html=1;strokeWidth=2;glass=0;shadow=0;sketch=1;curveFitting=1;jiggle=2;fontFamily=Comic Sans MS;" parent="1" vertex="1">
          <mxGeometry x="40" y="440" width="260" height="120" as="geometry" />
        </mxCell>
        <mxCell id="AhgYaTgqnZ72xqWJ1Z9R-82" value="Разум" style="rounded=0;whiteSpace=wrap;html=1;shadow=0;glass=0;sketch=1;jiggle=2;curveFitting=1;strokeWidth=2;align=center;verticalAlign=middle;fontFamily=Comic Sans MS;fontSize=12;fillColor=#A8EEFF;fillStyle=solid;" parent="1" vertex="1">
          <mxGeometry x="40" y="440" width="260" height="20" as="geometry" />
        </mxCell>
        <mxCell id="AhgYaTgqnZ72xqWJ1Z9R-83" value="4" style="rounded=0;whiteSpace=wrap;html=1;shadow=0;glass=0;sketch=1;jiggle=2;curveFitting=1;strokeWidth=2;align=center;verticalAlign=middle;fontFamily=Comic Sans MS;fontSize=12;fillColor=#A8EEFF;fillStyle=solid;" parent="1" vertex="1">
          <mxGeometry x="40" y="440" width="20" height="20" as="geometry" />
        </mxCell>
        <mxCell id="AhgYaTgqnZ72xqWJ1Z9R-84" value="Спасбросок" style="rounded=0;whiteSpace=wrap;html=1;shadow=0;glass=0;sketch=1;jiggle=2;curveFitting=1;strokeColor=default;strokeWidth=2;align=center;verticalAlign=middle;fontFamily=Comic Sans MS;fontSize=10;fontColor=default;fillColor=default;" parent="1" vertex="1">
          <mxGeometry x="80" y="470" width="85" height="20" as="geometry" />
        </mxCell>
        <mxCell id="AhgYaTgqnZ72xqWJ1Z9R-85" value="3" style="rounded=0;whiteSpace=wrap;html=1;shadow=0;glass=0;sketch=1;jiggle=2;curveFitting=1;strokeColor=default;strokeWidth=2;align=center;verticalAlign=middle;fontFamily=Comic Sans MS;fontSize=12;fontColor=default;fillColor=default;" parent="1" vertex="1">
          <mxGeometry x="65" y="470" width="20" height="20" as="geometry" />
        </mxCell>
        <mxCell id="AhgYaTgqnZ72xqWJ1Z9R-86" value="" style="ellipse;whiteSpace=wrap;html=1;aspect=fixed;rounded=0;shadow=0;glass=0;sketch=1;jiggle=2;curveFitting=1;strokeColor=default;strokeWidth=2;align=center;verticalAlign=middle;fontFamily=Comic Sans MS;fontSize=12;fontColor=default;fillColor=default;" parent="1" vertex="1">
          <mxGeometry x="50" y="475" width="10" height="10" as="geometry" />
        </mxCell>
        <mxCell id="AhgYaTgqnZ72xqWJ1Z9R-87" value="Выносливость" style="rounded=0;whiteSpace=wrap;html=1;shadow=0;glass=0;sketch=1;jiggle=2;curveFitting=1;strokeColor=default;strokeWidth=2;align=center;verticalAlign=middle;fontFamily=Comic Sans MS;fontSize=10;fontColor=default;fillColor=default;" parent="1" vertex="1">
          <mxGeometry x="205" y="470" width="85" height="20" as="geometry" />
        </mxCell>
        <mxCell id="AhgYaTgqnZ72xqWJ1Z9R-88" value="3" style="rounded=0;whiteSpace=wrap;html=1;shadow=0;glass=0;sketch=1;jiggle=2;curveFitting=1;strokeColor=default;strokeWidth=2;align=center;verticalAlign=middle;fontFamily=Comic Sans MS;fontSize=12;fontColor=default;fillColor=default;" parent="1" vertex="1">
          <mxGeometry x="190" y="470" width="20" height="20" as="geometry" />
        </mxCell>
        <mxCell id="AhgYaTgqnZ72xqWJ1Z9R-89" value="" style="ellipse;whiteSpace=wrap;html=1;aspect=fixed;rounded=0;shadow=0;glass=0;sketch=1;jiggle=2;curveFitting=1;strokeColor=default;strokeWidth=2;align=center;verticalAlign=middle;fontFamily=Comic Sans MS;fontSize=12;fontColor=default;fillColor=default;" parent="1" vertex="1">
          <mxGeometry x="175" y="475" width="10" height="10" as="geometry" />
        </mxCell>
        <mxCell id="AhgYaTgqnZ72xqWJ1Z9R-90" value="Атлетика" style="rounded=0;whiteSpace=wrap;html=1;shadow=0;glass=0;sketch=1;jiggle=2;curveFitting=1;strokeColor=default;strokeWidth=2;align=center;verticalAlign=middle;fontFamily=Comic Sans MS;fontSize=12;fontColor=default;fillColor=default;" parent="1" vertex="1">
          <mxGeometry x="80" y="500" width="85" height="20" as="geometry" />
        </mxCell>
        <mxCell id="AhgYaTgqnZ72xqWJ1Z9R-91" value="3" style="rounded=0;whiteSpace=wrap;html=1;shadow=0;glass=0;sketch=1;jiggle=2;curveFitting=1;strokeColor=default;strokeWidth=2;align=center;verticalAlign=middle;fontFamily=Comic Sans MS;fontSize=12;fontColor=default;fillColor=default;" parent="1" vertex="1">
          <mxGeometry x="65" y="500" width="20" height="20" as="geometry" />
        </mxCell>
        <mxCell id="AhgYaTgqnZ72xqWJ1Z9R-92" value="" style="ellipse;whiteSpace=wrap;html=1;aspect=fixed;rounded=0;shadow=0;glass=0;sketch=1;jiggle=2;curveFitting=1;strokeColor=default;strokeWidth=2;align=center;verticalAlign=middle;fontFamily=Comic Sans MS;fontSize=12;fontColor=default;fillColor=default;" parent="1" vertex="1">
          <mxGeometry x="50" y="505" width="10" height="10" as="geometry" />
        </mxCell>
        <mxCell id="AhgYaTgqnZ72xqWJ1Z9R-93" value="Подвижность" style="rounded=0;whiteSpace=wrap;html=1;shadow=0;glass=0;sketch=1;jiggle=2;curveFitting=1;strokeColor=default;strokeWidth=2;align=center;verticalAlign=middle;fontFamily=Comic Sans MS;fontSize=10;fontColor=default;fillColor=default;" parent="1" vertex="1">
          <mxGeometry x="205" y="500" width="85" height="20" as="geometry" />
        </mxCell>
        <mxCell id="AhgYaTgqnZ72xqWJ1Z9R-94" value="3" style="rounded=0;whiteSpace=wrap;html=1;shadow=0;glass=0;sketch=1;jiggle=2;curveFitting=1;strokeColor=default;strokeWidth=2;align=center;verticalAlign=middle;fontFamily=Comic Sans MS;fontSize=12;fontColor=default;fillColor=default;" parent="1" vertex="1">
          <mxGeometry x="190" y="500" width="20" height="20" as="geometry" />
        </mxCell>
        <mxCell id="AhgYaTgqnZ72xqWJ1Z9R-95" value="" style="ellipse;whiteSpace=wrap;html=1;aspect=fixed;rounded=0;shadow=0;glass=0;sketch=1;jiggle=2;curveFitting=1;strokeColor=default;strokeWidth=2;align=center;verticalAlign=middle;fontFamily=Comic Sans MS;fontSize=12;fontColor=default;fillColor=default;" parent="1" vertex="1">
          <mxGeometry x="175" y="505" width="10" height="10" as="geometry" />
        </mxCell>
        <mxCell id="AhgYaTgqnZ72xqWJ1Z9R-96" value="Акробатика" style="rounded=0;whiteSpace=wrap;html=1;shadow=0;glass=0;sketch=1;jiggle=2;curveFitting=1;strokeColor=default;strokeWidth=2;align=center;verticalAlign=middle;fontFamily=Comic Sans MS;fontSize=10;fontColor=default;fillColor=default;" parent="1" vertex="1">
          <mxGeometry x="80" y="530" width="85" height="20" as="geometry" />
        </mxCell>
        <mxCell id="AhgYaTgqnZ72xqWJ1Z9R-97" value="3" style="rounded=0;whiteSpace=wrap;html=1;shadow=0;glass=0;sketch=1;jiggle=2;curveFitting=1;strokeColor=default;strokeWidth=2;align=center;verticalAlign=middle;fontFamily=Comic Sans MS;fontSize=12;fontColor=default;fillColor=default;" parent="1" vertex="1">
          <mxGeometry x="65" y="530" width="20" height="20" as="geometry" />
        </mxCell>
        <mxCell id="AhgYaTgqnZ72xqWJ1Z9R-98" value="" style="ellipse;whiteSpace=wrap;html=1;aspect=fixed;rounded=0;shadow=0;glass=0;sketch=1;jiggle=2;curveFitting=1;strokeColor=default;strokeWidth=2;align=center;verticalAlign=middle;fontFamily=Comic Sans MS;fontSize=12;fontColor=default;fillColor=default;" parent="1" vertex="1">
          <mxGeometry x="50" y="535" width="10" height="10" as="geometry" />
        </mxCell>
        <mxCell id="AhgYaTgqnZ72xqWJ1Z9R-99" value="Детоксикация" style="rounded=0;whiteSpace=wrap;html=1;shadow=0;glass=0;sketch=1;jiggle=2;curveFitting=1;strokeColor=default;strokeWidth=2;align=center;verticalAlign=middle;fontFamily=Comic Sans MS;fontSize=10;fontColor=default;fillColor=default;" parent="1" vertex="1">
          <mxGeometry x="205" y="530" width="85" height="20" as="geometry" />
        </mxCell>
        <mxCell id="AhgYaTgqnZ72xqWJ1Z9R-100" value="3" style="rounded=0;whiteSpace=wrap;html=1;shadow=0;glass=0;sketch=1;jiggle=2;curveFitting=1;strokeColor=default;strokeWidth=2;align=center;verticalAlign=middle;fontFamily=Comic Sans MS;fontSize=12;fontColor=default;fillColor=default;" parent="1" vertex="1">
          <mxGeometry x="190" y="530" width="20" height="20" as="geometry" />
        </mxCell>
        <mxCell id="AhgYaTgqnZ72xqWJ1Z9R-101" value="" style="ellipse;whiteSpace=wrap;html=1;aspect=fixed;rounded=0;shadow=0;glass=0;sketch=1;jiggle=2;curveFitting=1;strokeColor=default;strokeWidth=2;align=center;verticalAlign=middle;fontFamily=Comic Sans MS;fontSize=12;fontColor=default;fillColor=default;" parent="1" vertex="1">
          <mxGeometry x="175" y="535" width="10" height="10" as="geometry" />
        </mxCell>
        <mxCell id="AhgYaTgqnZ72xqWJ1Z9R-102" value="" style="rounded=0;whiteSpace=wrap;html=1;strokeWidth=2;glass=0;shadow=0;sketch=1;curveFitting=1;jiggle=2;fontFamily=Comic Sans MS;" parent="1" vertex="1">
          <mxGeometry x="40" y="585" width="260" height="120" as="geometry" />
        </mxCell>
        <mxCell id="AhgYaTgqnZ72xqWJ1Z9R-103" value="Психика" style="rounded=0;whiteSpace=wrap;html=1;shadow=0;glass=0;sketch=1;jiggle=2;curveFitting=1;strokeWidth=2;align=center;verticalAlign=middle;fontFamily=Comic Sans MS;fontSize=12;fillColor=#E499FF;fillStyle=solid;" parent="1" vertex="1">
          <mxGeometry x="40" y="585" width="260" height="20" as="geometry" />
        </mxCell>
        <mxCell id="AhgYaTgqnZ72xqWJ1Z9R-104" value="4" style="rounded=0;whiteSpace=wrap;html=1;shadow=0;glass=0;sketch=1;jiggle=2;curveFitting=1;strokeWidth=2;align=center;verticalAlign=middle;fontFamily=Comic Sans MS;fontSize=12;fillColor=#E499FF;fillStyle=solid;" parent="1" vertex="1">
          <mxGeometry x="40" y="585" width="20" height="20" as="geometry" />
        </mxCell>
        <mxCell id="AhgYaTgqnZ72xqWJ1Z9R-105" value="Спасбросок" style="rounded=0;whiteSpace=wrap;html=1;shadow=0;glass=0;sketch=1;jiggle=2;curveFitting=1;strokeColor=default;strokeWidth=2;align=center;verticalAlign=middle;fontFamily=Comic Sans MS;fontSize=10;fontColor=default;fillColor=default;" parent="1" vertex="1">
          <mxGeometry x="80" y="615" width="85" height="20" as="geometry" />
        </mxCell>
        <mxCell id="AhgYaTgqnZ72xqWJ1Z9R-106" value="3" style="rounded=0;whiteSpace=wrap;html=1;shadow=0;glass=0;sketch=1;jiggle=2;curveFitting=1;strokeColor=default;strokeWidth=2;align=center;verticalAlign=middle;fontFamily=Comic Sans MS;fontSize=12;fontColor=default;fillColor=default;" parent="1" vertex="1">
          <mxGeometry x="65" y="615" width="20" height="20" as="geometry" />
        </mxCell>
        <mxCell id="AhgYaTgqnZ72xqWJ1Z9R-107" value="" style="ellipse;whiteSpace=wrap;html=1;aspect=fixed;rounded=0;shadow=0;glass=0;sketch=1;jiggle=2;curveFitting=1;strokeColor=default;strokeWidth=2;align=center;verticalAlign=middle;fontFamily=Comic Sans MS;fontSize=12;fontColor=default;fillColor=default;" parent="1" vertex="1">
          <mxGeometry x="50" y="620" width="10" height="10" as="geometry" />
        </mxCell>
        <mxCell id="AhgYaTgqnZ72xqWJ1Z9R-108" value="Выносливость" style="rounded=0;whiteSpace=wrap;html=1;shadow=0;glass=0;sketch=1;jiggle=2;curveFitting=1;strokeColor=default;strokeWidth=2;align=center;verticalAlign=middle;fontFamily=Comic Sans MS;fontSize=10;fontColor=default;fillColor=default;" parent="1" vertex="1">
          <mxGeometry x="205" y="615" width="85" height="20" as="geometry" />
        </mxCell>
        <mxCell id="AhgYaTgqnZ72xqWJ1Z9R-109" value="3" style="rounded=0;whiteSpace=wrap;html=1;shadow=0;glass=0;sketch=1;jiggle=2;curveFitting=1;strokeColor=default;strokeWidth=2;align=center;verticalAlign=middle;fontFamily=Comic Sans MS;fontSize=12;fontColor=default;fillColor=default;" parent="1" vertex="1">
          <mxGeometry x="190" y="615" width="20" height="20" as="geometry" />
        </mxCell>
        <mxCell id="AhgYaTgqnZ72xqWJ1Z9R-110" value="" style="ellipse;whiteSpace=wrap;html=1;aspect=fixed;rounded=0;shadow=0;glass=0;sketch=1;jiggle=2;curveFitting=1;strokeColor=default;strokeWidth=2;align=center;verticalAlign=middle;fontFamily=Comic Sans MS;fontSize=12;fontColor=default;fillColor=default;" parent="1" vertex="1">
          <mxGeometry x="175" y="620" width="10" height="10" as="geometry" />
        </mxCell>
        <mxCell id="AhgYaTgqnZ72xqWJ1Z9R-111" value="Атлетика" style="rounded=0;whiteSpace=wrap;html=1;shadow=0;glass=0;sketch=1;jiggle=2;curveFitting=1;strokeColor=default;strokeWidth=2;align=center;verticalAlign=middle;fontFamily=Comic Sans MS;fontSize=12;fontColor=default;fillColor=default;" parent="1" vertex="1">
          <mxGeometry x="80" y="645" width="85" height="20" as="geometry" />
        </mxCell>
        <mxCell id="AhgYaTgqnZ72xqWJ1Z9R-112" value="3" style="rounded=0;whiteSpace=wrap;html=1;shadow=0;glass=0;sketch=1;jiggle=2;curveFitting=1;strokeColor=default;strokeWidth=2;align=center;verticalAlign=middle;fontFamily=Comic Sans MS;fontSize=12;fontColor=default;fillColor=default;" parent="1" vertex="1">
          <mxGeometry x="65" y="645" width="20" height="20" as="geometry" />
        </mxCell>
        <mxCell id="AhgYaTgqnZ72xqWJ1Z9R-113" value="" style="ellipse;whiteSpace=wrap;html=1;aspect=fixed;rounded=0;shadow=0;glass=0;sketch=1;jiggle=2;curveFitting=1;strokeColor=default;strokeWidth=2;align=center;verticalAlign=middle;fontFamily=Comic Sans MS;fontSize=12;fontColor=default;fillColor=default;" parent="1" vertex="1">
          <mxGeometry x="50" y="650" width="10" height="10" as="geometry" />
        </mxCell>
        <mxCell id="AhgYaTgqnZ72xqWJ1Z9R-114" value="Подвижность" style="rounded=0;whiteSpace=wrap;html=1;shadow=0;glass=0;sketch=1;jiggle=2;curveFitting=1;strokeColor=default;strokeWidth=2;align=center;verticalAlign=middle;fontFamily=Comic Sans MS;fontSize=10;fontColor=default;fillColor=default;" parent="1" vertex="1">
          <mxGeometry x="205" y="645" width="85" height="20" as="geometry" />
        </mxCell>
        <mxCell id="AhgYaTgqnZ72xqWJ1Z9R-115" value="3" style="rounded=0;whiteSpace=wrap;html=1;shadow=0;glass=0;sketch=1;jiggle=2;curveFitting=1;strokeColor=default;strokeWidth=2;align=center;verticalAlign=middle;fontFamily=Comic Sans MS;fontSize=12;fontColor=default;fillColor=default;" parent="1" vertex="1">
          <mxGeometry x="190" y="645" width="20" height="20" as="geometry" />
        </mxCell>
        <mxCell id="AhgYaTgqnZ72xqWJ1Z9R-116" value="" style="ellipse;whiteSpace=wrap;html=1;aspect=fixed;rounded=0;shadow=0;glass=0;sketch=1;jiggle=2;curveFitting=1;strokeColor=default;strokeWidth=2;align=center;verticalAlign=middle;fontFamily=Comic Sans MS;fontSize=12;fontColor=default;fillColor=default;" parent="1" vertex="1">
          <mxGeometry x="175" y="650" width="10" height="10" as="geometry" />
        </mxCell>
        <mxCell id="AhgYaTgqnZ72xqWJ1Z9R-117" value="Акробатика" style="rounded=0;whiteSpace=wrap;html=1;shadow=0;glass=0;sketch=1;jiggle=2;curveFitting=1;strokeColor=default;strokeWidth=2;align=center;verticalAlign=middle;fontFamily=Comic Sans MS;fontSize=10;fontColor=default;fillColor=default;" parent="1" vertex="1">
          <mxGeometry x="80" y="675" width="85" height="20" as="geometry" />
        </mxCell>
        <mxCell id="AhgYaTgqnZ72xqWJ1Z9R-118" value="3" style="rounded=0;whiteSpace=wrap;html=1;shadow=0;glass=0;sketch=1;jiggle=2;curveFitting=1;strokeColor=default;strokeWidth=2;align=center;verticalAlign=middle;fontFamily=Comic Sans MS;fontSize=12;fontColor=default;fillColor=default;" parent="1" vertex="1">
          <mxGeometry x="65" y="675" width="20" height="20" as="geometry" />
        </mxCell>
        <mxCell id="AhgYaTgqnZ72xqWJ1Z9R-119" value="" style="ellipse;whiteSpace=wrap;html=1;aspect=fixed;rounded=0;shadow=0;glass=0;sketch=1;jiggle=2;curveFitting=1;strokeColor=default;strokeWidth=2;align=center;verticalAlign=middle;fontFamily=Comic Sans MS;fontSize=12;fontColor=default;fillColor=default;" parent="1" vertex="1">
          <mxGeometry x="50" y="680" width="10" height="10" as="geometry" />
        </mxCell>
        <mxCell id="AhgYaTgqnZ72xqWJ1Z9R-120" value="Детоксикация" style="rounded=0;whiteSpace=wrap;html=1;shadow=0;glass=0;sketch=1;jiggle=2;curveFitting=1;strokeColor=default;strokeWidth=2;align=center;verticalAlign=middle;fontFamily=Comic Sans MS;fontSize=10;fontColor=default;fillColor=default;" parent="1" vertex="1">
          <mxGeometry x="205" y="675" width="85" height="20" as="geometry" />
        </mxCell>
        <mxCell id="AhgYaTgqnZ72xqWJ1Z9R-121" value="3" style="rounded=0;whiteSpace=wrap;html=1;shadow=0;glass=0;sketch=1;jiggle=2;curveFitting=1;strokeColor=default;strokeWidth=2;align=center;verticalAlign=middle;fontFamily=Comic Sans MS;fontSize=12;fontColor=default;fillColor=default;" parent="1" vertex="1">
          <mxGeometry x="190" y="675" width="20" height="20" as="geometry" />
        </mxCell>
        <mxCell id="AhgYaTgqnZ72xqWJ1Z9R-122" value="" style="ellipse;whiteSpace=wrap;html=1;aspect=fixed;rounded=0;shadow=0;glass=0;sketch=1;jiggle=2;curveFitting=1;strokeColor=default;strokeWidth=2;align=center;verticalAlign=middle;fontFamily=Comic Sans MS;fontSize=12;fontColor=default;fillColor=default;" parent="1" vertex="1">
          <mxGeometry x="175" y="680" width="10" height="10" as="geometry" />
        </mxCell>
        <mxCell id="AhgYaTgqnZ72xqWJ1Z9R-123" value="Ссобой" style="rounded=0;whiteSpace=wrap;html=1;shadow=0;glass=0;sketch=1;jiggle=2;curveFitting=1;strokeColor=default;strokeWidth=2;align=center;verticalAlign=middle;fontFamily=Comic Sans MS;fontSize=12;fontColor=default;fillColor=default;" parent="1" vertex="1">
          <mxGeometry x="440" y="730" width="170" height="410" as="geometry" />
        </mxCell>
        <mxCell id="AhgYaTgqnZ72xqWJ1Z9R-124" value="Вооружение" style="rounded=0;whiteSpace=wrap;html=1;shadow=0;glass=0;sketch=1;jiggle=2;curveFitting=1;strokeColor=default;strokeWidth=2;align=center;verticalAlign=middle;fontFamily=Comic Sans MS;fontSize=12;fontColor=default;fillColor=default;" parent="1" vertex="1">
          <mxGeometry x="620" y="730" width="160" height="410" as="geometry" />
        </mxCell>
        <mxCell id="AhgYaTgqnZ72xqWJ1Z9R-125" value="На корабле" style="rounded=0;whiteSpace=wrap;html=1;shadow=0;glass=0;sketch=1;jiggle=2;curveFitting=1;strokeColor=default;strokeWidth=2;align=center;verticalAlign=middle;fontFamily=Comic Sans MS;fontSize=12;fontColor=default;fillColor=default;" parent="1" vertex="1">
          <mxGeometry x="50" y="730" width="380" height="190" as="geometry" />
        </mxCell>
        <mxCell id="AhgYaTgqnZ72xqWJ1Z9R-126" value="На складе" style="rounded=0;whiteSpace=wrap;html=1;shadow=0;glass=0;sketch=1;jiggle=2;curveFitting=1;strokeColor=default;strokeWidth=2;align=center;verticalAlign=middle;fontFamily=Comic Sans MS;fontSize=12;fontColor=default;fillColor=default;" parent="1" vertex="1">
          <mxGeometry x="50" y="930" width="380" height="210" as="geometry" />
        </mxCell>
        <mxCell id="AhgYaTgqnZ72xqWJ1Z9R-127" value="Описание пушки" style="rounded=0;whiteSpace=wrap;html=1;shadow=0;glass=0;sketch=1;jiggle=2;curveFitting=1;strokeColor=default;strokeWidth=2;align=center;verticalAlign=middle;fontFamily=Comic Sans MS;fontSize=12;fontColor=default;fillColor=default;" parent="1" vertex="1">
          <mxGeometry x="630" y="740" width="140" height="50" as="geometry" />
        </mxCell>
        <mxCell id="AhgYaTgqnZ72xqWJ1Z9R-128" value="Описание пушки" style="rounded=0;whiteSpace=wrap;html=1;shadow=0;glass=0;sketch=1;jiggle=2;curveFitting=1;strokeColor=default;strokeWidth=2;align=center;verticalAlign=middle;fontFamily=Comic Sans MS;fontSize=12;fontColor=default;fillColor=default;" parent="1" vertex="1">
          <mxGeometry x="630" y="800" width="145" height="50" as="geometry" />
        </mxCell>
        <mxCell id="AhgYaTgqnZ72xqWJ1Z9R-129" value="Описание пушки" style="rounded=0;whiteSpace=wrap;html=1;shadow=0;glass=0;sketch=1;jiggle=2;curveFitting=1;strokeColor=default;strokeWidth=2;align=center;verticalAlign=middle;fontFamily=Comic Sans MS;fontSize=12;fontColor=default;fillColor=default;" parent="1" vertex="1">
          <mxGeometry x="630" y="860" width="145" height="50" as="geometry" />
        </mxCell>
        <mxCell id="TZ50AQz7vT_nZpLPE5aq-1" value="Health" style="rounded=0;whiteSpace=wrap;html=1;strokeWidth=2;sketch=1;curveFitting=1;jiggle=2;fontFamily=Comic Sans MS;labelBorderColor=none;labelBackgroundColor=none;" parent="1" vertex="1">
          <mxGeometry x="60" y="105" width="60" height="25" as="geometry" />
        </mxCell>
        <mxCell id="TZ50AQz7vT_nZpLPE5aq-2" value="Броня" style="rounded=0;whiteSpace=wrap;html=1;strokeWidth=2;sketch=1;curveFitting=1;jiggle=2;fontFamily=Comic Sans MS;" parent="1" vertex="1">
          <mxGeometry x="130" y="105" width="60" height="25" as="geometry" />
        </mxCell>
        <mxCell id="TZ50AQz7vT_nZpLPE5aq-5" value="AC" style="rounded=0;whiteSpace=wrap;html=1;strokeWidth=2;sketch=1;curveFitting=1;jiggle=2;fontFamily=Comic Sans MS;labelBorderColor=none;labelBackgroundColor=none;" parent="1" vertex="1">
          <mxGeometry x="200" y="70" width="60" height="60" as="geometry" />
        </mxCell>
      </root>
    </mxGraphModel>
  </diagram>
</mxfile>
